<svg style="position: absolute; width: 0; height: 0;" width="0" height="0" version="1.1" xmlns="http://www.w3.org/2000/svg" xmlns:xlink="http://www.w3.org/1999/xlink">
<defs>
<symbol id="crowbar" viewBox="0 0 1024 1024">
	<title>crowbar</title>
	<path fill="#ffffff" class="path1" d="M851.227 632.549c1.485-11.338 2.906-22.684 4.471-34.007 1.497-10.854 4.282-11.51 14.252-6.857 7.631 3.564 8.71 8.712 8.612 15.962-0.354 25.678 0.926 51.36 0.926 77.013 0 20.566-4.272 41.116-4.545 61.7-0.465 35.262-8.077 68.88-19.11 102.070-5.687 17.115-13.087 33.622-23.378 48.042-11.192 15.682-24.412 30.099-41.691 40.135-7.825 4.545-15.714 8.413-24.201 11.467-23.286 8.368-46.070 4.256-68.866-1.997-29.182-7.999-47.827-29.055-65.141-51.997-8.090-10.713-16.56-21.125-22.559-33.214-10.033-20.23-19.263-40.894-30.058-60.707-9.648-17.711-18.344-35.869-27.474-53.815-10.926-21.481-22.082-42.846-32.954-64.352-11.989-23.716-23.761-47.54-35.645-71.309-10.783-21.565-21.326-43.254-32.449-64.641-16.755-32.213-32.537-64.913-49.078-97.221-16.181-31.603-31.687-63.545-48.046-95.039-15.829-30.464-30.747-61.379-46.588-91.83-10.664-20.498-20.685-41.329-31.109-61.952-15.827-31.302-31.754-62.552-47.641-93.825-4.395-8.651-8.624-17.392-13.226-25.93-5.968-11.071-15.573-18.653-25.688-25.606-8.595-5.908-17.342-11.598-25.985-17.439-1.165-0.788-2.879-1.585-2.167-3.4 0.252-0.641 1.71-1.325 2.458-1.18 14.895 2.951 29.97-2.564 45.042 1.862 18.231 5.353 32.494 14.082 41.923 31.625 13.4 24.932 26.687 49.947 40.704 74.57 18.186 31.945 34.421 65.006 52.744 96.868 11.905 20.701 22.354 42.181 34.73 62.628 8.352 13.801 15.237 28.488 22.974 42.668 10.945 20.058 22.104 39.997 33.114 60.021 9.939 18.076 19.778 36.205 29.696 54.288 13.509 24.621 27.122 49.185 40.563 73.845 16.050 29.452 31.834 59.054 47.978 88.455 15.196 27.671 30.853 55.087 46.037 82.766 15.647 28.522 30.616 57.42 46.529 85.791 15.282 27.249 28.299 56.097 51.886 77.842 4.035 3.717 8.010 7.5 12.116 11.139 8.913 7.899 17.541 2.492 25.483-1.448 22.325-11.080 36.868-29.866 44.81-52.666 15.53-44.599 24.533-90.753 26.86-137.998 1.751-35.533 3.652-71.074 3.17-106.682-0.117-8.595 0.67-8.301 9.013-6.713 13.4 2.546 17.242 11.821 19.837 23.366 2.834 12.618 6.779 24.984 10.24 37.458 0.477 0.082 0.952 0.164 1.432 0.246z"></path>
</symbol>
<symbol id="settings" viewBox="0 0 1024 1024">
	<title>settings</title>
	<path fill="#ffffff" class="path1" d="M418.226 921.756c-0.467 0-0.934 0-1.401 0-1.030-0.471-2.025-1.053-3.099-1.399-19.018-6.109-38.492-11.082-56.947-18.571-21.232-8.616-41.56-19.456-62.314-29.346 19.716-45.113 15.725-85.703-18.317-119.505-34.286-34.044-75.17-37.403-119.024-18.018-23.751-38.103-41.204-78.778-51.608-122.456 42.779-15.946 68.893-45.359 71.315-90.3 2.804-51.997-24.537-85.809-72.663-104.006 10.226-44.122 26.843-85.172 50.223-123.357 42.217 19.843 82.104 17.787 116.417-13.464 38.629-35.183 42.762-78.264 20.969-125.166 38.408-23.763 79.43-41.032 123.343-51.481 17.566 53.205 58.657 72.165 89.119 73.589 53.697 2.511 88.302-24.24 106.392-73.722 34.757 6.181 99.017 32.838 123.312 51.079-19.792 42.099-18.094 82.625 14.258 117.311 35.117 37.655 77.9 41.648 123.671 20.445 19.937 28.228 49.625 101.284 50.219 123.425-40.759 14.754-67.195 42.666-70.988 86.413-4.624 53.322 22.159 88.289 71.369 107.608-10.521 43.663-27.449 84.394-51.106 122.395-43.545-19.065-83.993-15.684-118.041 17.754-34.74 34.114-38.269 75.11-19.333 118.78-26.434 19.345-105.359 51.341-123.3 49.953-0.467-1.212-0.956-2.503-1.456-3.787-18.833-48.282-67.643-74.719-117.885-62.583-36.839 8.903-60.789 32.737-73.126 68.407zM513.729 712.706c111.497-0.453 200.247-90.024 199.838-201.691-0.397-109.398-90.54-198.402-200.614-198.085-110.557 0.319-200.061 90.245-199.655 200.604 0.401 109.996 90.591 199.621 200.432 199.172z"></path>
</symbol>
<symbol id="moosehead" viewBox="0 0 1024 1024">
	<title>moosehead</title>
	<path fill="#ffffff" class="path1" d="M326.736 260.616c4.239-7.641 4.96-8.368 5.032-9.153 0.999-11.297 1.913-22.602 2.847-33.905 10.226 7.416 22.393 13.199 30.294 22.575 18.848 22.362 32.629 46.748 34.216 78.119 2.032 40.157 26.085 69.042 60.158 87.761 54.383 29.874 143.491 2.869 175.028-52.003 12.71-22.112 22.794-45.758 35.92-67.592 4.088-6.797 14.246-9.947 21.627-14.768 1.085 8.006 3.791 16.191 2.914 23.978-1.724 15.413-5.429 30.601-8.317 45.883 2.773 1.653 5.544 3.301 8.315 4.95 9.763-12.968 22.913-24.625 28.529-39.188 9.738-25.26 14.451-52.423 22.020-78.565 2.933-10.125 7.905-19.659 12.704-31.293 14.080 14.94 14.080 14.94 15.317 89.491 25.416-14.748 25.924-39.369 31.416-60.748 5.751-22.372 10.099-45.105 15.89-71.449 33.507 20.433 13.462 50.52 26.636 79.352 11.559-12.798 24.275-21.895 30.083-34.243 17.934-38.115 32.739-77.693 49.916-116.185 4.192-9.404 12.804-16.841 19.386-25.18 7.135 10.086 19.628 19.835 20.292 30.331 1.36 21.514-3.537 43.438-6.025 65.176-1.493 13.072-3.308 26.108-5.825 45.771 11.962-15.092 18.627-23.501 25.291-31.91 7.59 12.059 21.211 23.845 21.774 36.225 3.406 74.699-4.506 146.436-71.424 196.020-8.497 6.296-17.297 12.386-24.857 19.712-68.413 66.345-156.324 83.526-245.311 99.033-13.636 2.376-34.386 9.4-37.349 18.827-8.096 25.752 8.348 55.065 32.506 57.598 35.482 3.723 44.108 23.001 45.564 53.84 5.061 107.252-21.42 200.679-111.94 267.909-40.147 29.815-60.611 26.679-81.613-19.317-16.415-35.949-37.683-66.722-65.792-94.487-12.216-12.067-18.477-31.638-23.767-48.927-10.508-34.339-19.237-38.595-49.469-19.591-27.513 17.289-31.345 16.085-43.708-14.977-3.787 0.674-8.301 0.518-11.893 2.265-37.509 18.244-94.175-1.784-110.26-39.221-12.54-29.184 9.546-89.985 44.167-110.858 26.878-16.21 57.399-26.239 85.434-40.7 20.681-10.662 41.935-21.768 59.275-36.878 15.958-13.904 10.103-26.679-9.951-34.431-89.149-34.464-176.74-72.886-255.631-127.22-68.714-47.323-87.992-122.362-98.048-199.696-1.37-10.547 9.47-22.688 14.655-34.093 9.914 6.181 22.084 10.449 29.293 18.93 16.806 19.765 31.224 41.554 50.479 67.803 2.945-15.55 4.579-24.177 7.416-39.139 11.053 10.992 18.85 18.123 25.93 25.903 18.917 20.791 36.446 43.010 56.852 62.192 7.008 6.588 21.871 9.542 31.248 7.041 5.224-1.393 6.56-17.418 9.624-26.855 2.593-7.989 5.153-15.993 7.727-23.988 7.686 4.755 17.097 8.024 22.721 14.557 14.49 16.847 27.314 35.14 42.684 55.319z"></path>
</symbol>
<symbol id="inventory" viewBox="0 0 500 500">
	<title>inventory</title>
	<path fill-rule="evenodd" clip-rule="evenodd" fill="#FFFFFF" d="M261.577,39.042c4.564,0.849,9.175,1.507,13.686,2.581
		c22.974,5.463,36.011,19.959,39.178,43.343c0.199,1.475,0.587,2.923,0.943,4.657c1.84,0,3.475,0,5.11,0
		c28.39,0,56.78-0.005,85.171,0.002c13.519,0.003,14.558,0.611,17.74,13.687c3.537,14.526,5.007,29.335,4.206,44.274
		c-1.022,19.069-11.553,32.186-27.163,41.832c-12.287,7.591-25.784,12.174-39.746,15.684c-6.915-12.678-15.425-23.552-31.603-21.32
		c-16.924,2.334-23.83,15.018-27.445,30.141c-33.866,2.465-67.574,2.445-101.594,0.057c-3.874-15.899-11.33-29.204-29.673-30.397
		c-15.019-0.977-23.088,9.54-29.514,21.668c-17.436-4.634-34.297-10.304-48.546-21.871c-12.435-10.093-18.881-23.188-18.975-39.126
		c-0.09-15.322,1.371-30.522,5.626-45.341c2.07-7.207,3.702-8.834,11.226-9.083c9.912-0.327,19.841-0.19,29.763-0.2
		c20.535-0.021,41.069-0.006,61.604-0.006c1.499,0,2.999,0,4.411,0c1.421-5.921,2.3-11.668,4.187-17.063
		c6.585-18.839,20.916-28.249,39.841-31.746c3.35-0.619,6.709-1.183,10.065-1.772C247.243,39.042,254.41,39.042,261.577,39.042z
		 M219.606,89.334c21.006,0,41.712,0,62.445,0c-0.942-9.378-4.214-13.616-12.839-15.702c-12.22-2.955-24.563-2.956-36.782,0.002
		C223.811,75.722,220.526,79.979,219.606,89.334z"/>
	<path fill-rule="evenodd" clip-rule="evenodd" fill="#FFFFFF" d="M397.697,385.775c1.794-14.033,3.576-28.068,5.383-42.099
		c3.9-30.303,7.95-60.584,15.006-90.356c1.134-4.783,3.124-9.366,4.775-14.021c0.916-2.582,2.811-3.326,5.519-3.228
		c8.807,0.317,15.83,3.375,20.899,11.082c6.544,9.947,10.065,20.722,10.763,32.507c1.385,23.416-1.33,46.519-6.376,69.29
		c-2.907,13.116-6.683,26.113-11.102,38.803c-5.538,15.902-16.855,27.592-30.437,37.089c-22.103,15.455-47.198,23.357-73.345,28.358
		c-44.155,8.445-88.697,8.881-133.375,6.073c-26.181-1.645-52.057-5.162-77.031-13.531c-22.521-7.548-42.358-19.132-56.321-39.105
		c-7.982-11.419-13.155-24.137-17.077-37.377c-7.928-26.769-12.958-54.031-13.642-82.026c-0.388-15.913,3.008-30.25,15.182-41.642
		c7.704-7.209,16.969-9.348,26.969-9.327c1.298,0.002,3.394,2.089,3.757,3.55c2.316,9.318,5.157,18.635,6.15,28.127
		c3.78,36.146,6.923,72.355,10.308,108.542c0.05,0.529,0.149,1.054,0.965,1.563c0-52.348,0-104.696,0-157.2
		c8.426,2.974,16.12,6.435,24.182,8.329c8.474,1.991,15.192,5.028,19.786,13.125c3.562,6.28,9.82,10.423,17.249,11.815
		c9.31,1.745,15.991-3.335,21.599-9.598c3.394-3.791,6.723-4.774,11.688-4.661c27.264,0.622,54.539,0.896,81.811,0.978
		c8.108,0.024,16.227-0.874,24.327-1.529c2.72-0.22,4.676,0.432,6.381,2.65c1.497,1.946,3.38,3.619,5.216,5.277
		c10.808,9.766,22.077,9.746,32.508-0.59c3.655-3.623,6.25-8.31,9.37-12.48c0.79-1.056,1.562-2.547,2.646-2.897
		c11.728-3.785,23.516-7.382,35.622-11.133c0,54.854,0,110.243,0,165.63C397.268,385.767,397.482,385.771,397.697,385.775z"/>

</symbol>
<symbol id="book" viewBox="0 0 1024 1024">
	<title>book</title>
	<path fill="#ffffff" class="path1" d="M368.802 66.275c4.522 0 9.044 0 13.566 0 8.735 2.74 18.084 4.282 26.112 8.401 132.342 67.875 264.493 136.112 396.761 204.126 12.548 6.453 18.209 15.991 18.196 30.132-0.162 162.533-0.297 325.069 0.117 487.598 0.057 22.446-18.233 37.192-35.842 36.155-28.996-1.702-40.466-12.665-40.352-35.668 0.461-91.437 0.19-182.88 0.19-274.319 0-61.295-0.123-122.591 0.152-183.886 0.035-7.78-2.736-12.116-9.806-14.739-5.616-2.085-11.074-4.708-16.361-7.547-112.282-60.262-224.502-120.646-336.824-180.836-14.082-7.547-29.514-9.617-44.339-3.437-15.428 6.433-30.626 13.951-44.7 22.917-9.869 6.287-17.687 15.798-27.49 24.863 8.874 5.059 15.753 9.048 22.696 12.925 112.386 62.738 224.748 125.518 337.218 188.107 12.427 6.916 18.082 16.13 18.047 30.89-0.375 159.769-0.479 319.539 0.088 479.308 0.068 19.298-13.22 29.223-29.897 29.895-10.344 0.416-18.016-4.211-26.239-9.345-101.755-63.549-203.649-126.872-305.514-190.249-19.386-12.063-38.969-23.824-58.122-36.241-11.127-7.215-17.201-17.365-17.183-31.476 0.055-39.168-0.618-78.338-1.077-117.506-0.446-37.908-1.102-75.815-1.462-113.725-0.729-76.841-1.462-153.684-1.878-230.527-0.106-19.821 6.84-37.411 20.441-51.984 31.078-33.307 68.657-55.949 112.736-67.529 10.107-2.656 20.503-4.229 30.767-6.302z"></path>
</symbol>
<symbol id="key" viewBox="0 0 1024 1024">
	<title>key</title>
	<path fill="#ffffff" class="path1" d="M352.119 707.049c-18.063 18.987-34.408 36.168-50.881 53.477-14.287-14.742-26.925-27.781-40.202-41.486 1.128-1.21 3.166-3.547 5.36-5.728 78.041-77.609 156.054-155.247 234.248-232.698 5.095-5.048 6.298-8.43 2.345-15.325-50.127-87.439 3.842-195.523 104.339-209.57 89.233-12.472 168.808 62.915 160.203 151.773-9.959 102.869-120.549 160.979-211.157 110.95-2.796-1.544-5.554-3.154-8.163-4.639-32.623 33.135-64.991 66.009-98.126 99.664 11.057 10.174 23.497 21.627 35.441 32.616-14.848 14.819-27.695 27.644-42 41.923-10.314-11.813-21.445-24.562-33.057-37.859-7.881 7.528-13.134 12.548-18.713 17.877 21.713 21.715 43.055 43.055 63.859 63.859-13.398 13.789-26.198 26.964-40.339 41.517-20.646-21.686-41.413-43.506-63.156-66.351zM626.158 480.438c46.787-0.102 85.766-39.033 85.461-85.352-0.307-46.69-38.928-84.546-86.196-84.482-46.369 0.059-84.826 38.486-84.855 84.783-0.027 46.596 38.775 85.156 85.59 85.051z"></path>
</symbol>
<symbol id="password" viewBox="0 0 1024 1024">
	<title>password</title>
	<path fill="#ffffff" class="path1" d="M20.504 375.697l924.201-119.369 50.633 392.023-924.201 119.369-50.633-392.023z"></path>
</symbol>

<symbol id="downstairs" viewBox="0 0 1024 1024">
  <title>downstairs</title>
	<path fill-rule="evenodd" clip-rule="evenodd" fill="#FFFFFF" d="M501.953,78.578c-23.699,0-47.398,0-72.167,0
		c0,34.674,0,68.642,0,103.321c-24.375,0-47.69,0-72.073,0c0,34.672,0,68.639,0,103.323c-24.37,0-47.687,0-72.052,0
		c0,34.669,0,68.635,0,103.382c-69.158,0-137.27,0-207.198,0c2.943,3.424,4.608,5.626,6.538,7.564
		c21.116,21.233,42.296,42.404,63.385,63.664c2.214,2.232,3.953,4.934,5.912,7.417c-18.229,0-36.458,0-54.688,0
		c-10.642-10.902-21.16-21.931-31.953-32.683c-21.822-21.736-43.793-43.324-65.703-64.974c0-0.651,0-1.302,0-1.953
		c21.958-21.67,43.915-43.341,65.874-65.01c10.877-10.734,20.033-25.839,33.112-31.003c13.823-5.458,31.387-1.453,47.317-1.559
		c1.564-0.01,3.13,0.149,5.809,0.286c-25.918,25.175-51.124,49.656-76.33,74.139c0.785,1.104,1.571,2.206,2.355,3.31
		c56.874,0,113.748,0,171.512,0c0-31.196,0-62.614,0-95.091c24.396,0,47.943,0,72.533,0c0-35.001,0-68.958,0-103.617
		c24.354,0,47.661,0,72.349,0c0-35.043,0-69.382,0-103.721c35.156,0,70.312,0,105.469,0
		C501.953,56.442,501.953,67.51,501.953,78.578z"/>
</symbol>

<symbol id="upstairs" viewBox="0 0 1024 1024">
  <title>upstairs</title>
	<path fill-rule="evenodd" clip-rule="evenodd" fill="#FFFFFF" d="M-2,434.046c23.699,0,47.398,0,72.167,0
		c0-34.674,0-68.642,0-103.321c24.375,0,47.69,0,72.073,0c0-34.672,0-68.639,0-103.323c24.37,0,47.687,0,72.052,0
		c0-34.669,0-68.635,0-103.382c69.158,0,137.27,0,207.199,0c-2.943-3.424-4.608-5.626-6.538-7.564
		c-21.116-21.233-42.296-42.404-63.385-63.664c-2.214-2.232-3.953-4.934-5.912-7.417c18.229,0,36.458,0,54.688,0
		c10.643,10.902,21.16,21.931,31.953,32.683c21.822,21.736,43.794,43.324,65.703,64.974c0,0.651,0,1.302,0,1.953
		c-21.958,21.67-43.914,43.341-65.874,65.01c-10.877,10.734-20.032,25.839-33.111,31.003c-13.823,5.458-31.388,1.453-47.317,1.559
		c-1.564,0.01-3.13-0.149-5.809-0.286c25.918-25.175,51.123-49.656,76.33-74.139c-0.785-1.104-1.571-2.206-2.355-3.31
		c-56.874,0-113.748,0-171.512,0c0,31.196,0,62.614,0,95.091c-24.396-0.001-47.944-0.001-72.534-0.001c0,35.001,0,68.959,0,103.617
		c-24.354,0-47.661,0-72.349,0c0,35.043,0,69.382,0,103.721c-35.156,0-70.312,0-105.469,0C-2,456.182-2,445.113-2,434.046z"/>
</symbol>

<symbol id="arrow" viewBox="0 0 1024 1024">
  <title>arrow</title>
	<path fill-rule="evenodd" clip-rule="evenodd" fill="#FFFFFF" d="M229.139,396.565c1.283-1.569,2.439-3.271,3.865-4.696
		c42.616-42.645,85.253-85.265,127.926-127.852c1.33-1.325,3.106-2.202,4.672-3.291c-0.329-0.582-0.659-1.161-0.987-1.738
		c-120.7,0-241.402,0-362.352,0c0-23.28,0-45.809,0-68.862c120.891,0,241.52,0,363.571,0c-2.243-2.379-3.552-3.838-4.936-5.219
		C318.266,142.282,275.62,99.667,233,57.025c-1.426-1.426-2.583-3.126-3.861-4.695c32.487,0,64.977,0,97.462,0
		c1.236,1.569,2.33,3.287,3.734,4.691c54.332,54.345,108.686,108.673,163.098,162.937c1.422,1.422,3.548,2.139,6.135,3.646
		c-3.418,2.954-5.071,4.214-6.526,5.667c-54.253,54.184-108.491,108.381-162.702,162.603c-1.405,1.406-2.497,3.123-3.738,4.692
		C294.116,396.565,261.626,396.565,229.139,396.565z"/>
</symbol>

</defs>
</svg>